<svg width="1280" height="832" viewBox="0 0 1280 832" fill="none" xmlns="http://www.w3.org/2000/svg">
<path d="M0 0H1180C1235.23 0 1280 44.7715 1280 100V150H0V0Z" fill="#323232"/>
<rect x="1134" y="150" width="146" height="100" fill="#323232"/>
<rect y="400" width="146" height="50" fill="#323232"/>
<rect x="1134" y="582" width="146" height="100" fill="#323232"/>
<path d="M0 350C0 294.772 44.7715 250 100 250H1280V300C1280 355.228 1235.23 400 1180 400H0V350Z" fill="#323232"/>
<path d="M0 432H1180C1235.23 432 1280 476.772 1280 532V582H100C44.7715 582 0 537.228 0 482V432Z" fill="#323232"/>
<path d="M0 682H1280V732C1280 787.228 1235.23 832 1180 832H0V682Z" fill="#323232"/>
<rect y="60" width="247" height="30" fill="#D9D9D9"/>
<rect x="71" y="310" width="247" height="30" fill="#D9D9D9"/>
<rect x="71" y="492" width="247" height="30" fill="#D9D9D9"/>
<rect x="58" y="466" width="100" height="30" transform="rotate(-90 58 466)" fill="#D9D9D9"/>
<rect y="742" width="247" height="30" fill="#D9D9D9"/>
<rect x="297" y="60" width="247" height="30" fill="#D9D9D9"/>
<rect x="368" y="310" width="247" height="30" fill="#D9D9D9"/>
<rect x="368" y="492" width="247" height="30" fill="#D9D9D9"/>
<rect x="297" y="742" width="247" height="30" fill="#D9D9D9"/>
<rect x="594" y="60" width="247" height="30" fill="#D9D9D9"/>
<rect x="665" y="310" width="247" height="30" fill="#D9D9D9"/>
<rect x="665" y="492" width="247" height="30" fill="#D9D9D9"/>
<rect x="594" y="742" width="247" height="30" fill="#D9D9D9"/>
<rect x="891" y="60" width="247" height="30" fill="#D9D9D9"/>
<rect x="962" y="310" width="247" height="30" fill="#D9D9D9"/>
<rect x="962" y="492" width="247" height="30" fill="#D9D9D9"/>
<rect x="891" y="742" width="247" height="30" fill="#D9D9D9"/>
<rect x="1188" y="772" width="200" height="30" transform="rotate(-90 1188 772)" fill="#D9D9D9"/>
<rect x="1188" y="260" width="200" height="30" transform="rotate(-90 1188 260)" fill="#D9D9D9"/>
</svg>
